<svg width="321" height="69" viewBox="0 0 321 69" fill="none" xmlns="http://www.w3.org/2000/svg">
<path d="M63.7193 68H45.7985L36.8416 51.2466L45.8054 34.5L63.7193 68Z" stroke="#E1E1EB" stroke-width="2" stroke-linejoin="round"/>
<path d="M45.8055 1H45.7986L18.9209 51.2466L27.8847 68L45.8055 34.5L63.7262 68L72.6832 51.2466L45.8055 1Z" stroke="#E1E1EB" stroke-width="2" stroke-linejoin="round"/>
<path d="M108.525 51.2466L99.5608 68L63.7261 1H81.6468L108.525 51.2466Z" stroke="#E1E1EB" stroke-width="2" stroke-linejoin="round"/>
<path d="M45.7985 1L18.9208 51.2466L27.8777 68H9.95697L1 51.2466L27.8777 1H45.7985Z" stroke="#E1E1EB" stroke-width="2" stroke-linejoin="round"/>
<path d="M99.5607 68H81.6399L54.7622 17.7466L63.726 1L99.5607 68Z" stroke="#E1E1EB" stroke-width="2" stroke-linejoin="round"/>
<path fill-rule="evenodd" clip-rule="evenodd" d="M217.381 46.2321H188.912V9.14262H217.381V17.1156H197.815V23.5279H212.957V31.4737H197.815V38.2592H217.381V46.2321ZM170.991 46.2322H162.089V20.8477L154.627 42.7309H145.165L137.703 20.9291V46.2322H128.801V9.14268H141.41L149.91 32.6952L158.362 9.14268H170.998V46.2322H170.991ZM283.875 9.14262H292.777V46.2321H283.875V9.14262ZM305.325 27.2395L319.799 9.14262H308.841L295.017 27.7688L309.804 46.2321H321L305.325 27.2395ZM265.661 21.0105C265.661 26.8935 261.926 31.0258 255.236 32.0844L265.954 46.2321H255.345L245.508 32.349L244.204 30.5034V46.2321H235.301V9.14262H251.536C260.759 9.14262 265.661 13.6957 265.661 21.0105ZM244.204 17.1699V24.9053H251.427C254.622 24.9053 256.595 23.6297 256.595 21.0105C256.595 18.3912 254.574 17.1699 251.427 17.1699H244.204Z" fill="#E1E1EB"/>
<path fill-rule="evenodd" clip-rule="evenodd" d="M133.163 56.0236L132.535 56.4375C132.255 56.0304 131.791 55.7725 131.238 55.7725C130.289 55.7725 129.593 56.4511 129.593 57.4485C129.593 58.446 130.289 59.1245 131.238 59.1245C131.791 59.1245 132.242 58.8803 132.528 58.4596L133.136 58.9074C132.74 59.4842 132.044 59.837 131.231 59.837C129.804 59.837 128.801 58.826 128.801 57.4485C128.801 56.0711 129.804 55.06 131.231 55.06C132.057 55.06 132.788 55.4264 133.15 56.0236H133.163ZM139.301 59.7556H135.983V55.1483H136.734V59.0499H139.301V59.7556ZM145.486 59.7556H146.285L144.455 55.1483H143.52L141.69 59.7556H142.468L142.926 58.5817H145.028L145.486 59.7556ZM144.755 57.876H143.206L143.977 55.8879L144.755 57.876ZM152.026 56.1662C151.63 55.9151 151.193 55.7726 150.722 55.7726C150.101 55.7726 149.678 56.0372 149.678 56.4579C149.678 56.8379 150.039 56.9872 150.64 57.0754L150.961 57.1161C151.712 57.2179 152.456 57.53 152.456 58.385C152.456 59.3214 151.603 59.8371 150.599 59.8371C149.971 59.8371 149.213 59.6268 148.735 59.2196L149.145 58.6293C149.466 58.9211 150.06 59.1382 150.599 59.1382C151.207 59.1382 151.685 58.8804 151.685 58.4597C151.685 58.1 151.323 57.9304 150.64 57.8354L150.278 57.7879C149.589 57.6929 148.906 57.3672 148.906 56.5122C148.906 55.5894 149.732 55.0737 150.736 55.0737C151.412 55.0737 151.944 55.2637 152.415 55.569L152.033 56.1729L152.026 56.1662ZM157.017 55.7726C157.488 55.7726 157.925 55.9151 158.32 56.1662L158.327 56.1729L158.71 55.569C158.239 55.2637 157.706 55.0737 157.03 55.0737C156.027 55.0737 155.201 55.5894 155.201 56.5122C155.201 57.3672 155.883 57.6929 156.573 57.7879L156.935 57.8354C157.617 57.9304 157.979 58.1 157.979 58.4597C157.979 58.8804 157.501 59.1382 156.894 59.1382C156.354 59.1382 155.76 58.9211 155.44 58.6293L155.03 59.2196C155.508 59.6268 156.266 59.8371 156.894 59.8371C157.897 59.8371 158.751 59.3214 158.751 58.385C158.751 57.53 158.006 57.2179 157.255 57.1161L156.935 57.0754C156.334 56.9872 155.972 56.8379 155.972 56.4579C155.972 56.0372 156.395 55.7726 157.017 55.7726ZM165.994 59.7556H165.243V55.1483H165.994V59.7556ZM172.507 59.7556H173.183V55.1483H172.432V58.4867L169.844 55.1483H169.169V59.7556H169.92V56.4171L172.507 59.7556ZM184.024 56.0236L183.396 56.4375C183.116 56.0304 182.652 55.7725 182.099 55.7725C181.15 55.7725 180.454 56.4511 180.454 57.4485C180.454 58.446 181.15 59.1245 182.099 59.1245C182.652 59.1245 183.102 58.8803 183.389 58.4596L183.997 58.9074C183.601 59.4842 182.904 59.837 182.092 59.837C180.665 59.837 179.662 58.826 179.662 57.4485C179.662 56.0711 180.665 55.06 182.092 55.06C182.918 55.06 183.649 55.4264 184.01 56.0236H184.024ZM188.939 59.837C190.366 59.837 191.37 58.826 191.37 57.4485C191.37 56.0711 190.366 55.06 188.939 55.06C187.513 55.06 186.509 56.0711 186.509 57.4485C186.509 58.826 187.513 59.837 188.939 59.837ZM188.946 59.1245C187.997 59.1245 187.301 58.4392 187.301 57.4485C187.301 56.4511 187.997 55.7725 188.946 55.7725C189.895 55.7725 190.592 56.4511 190.592 57.4485C190.592 58.446 189.895 59.1245 188.946 59.1245ZM198.306 59.7556H197.63L195.043 56.4171V59.7556H194.292V55.1483H194.968L197.555 58.4867V55.1483H198.306V59.7556ZM203.174 55.7726C203.645 55.7726 204.082 55.9151 204.478 56.1662L204.484 56.1729L204.867 55.569C204.396 55.2637 203.863 55.0737 203.187 55.0737C202.184 55.0737 201.358 55.5894 201.358 56.5122C201.358 57.3672 202.04 57.6929 202.73 57.7879L203.092 57.8354C203.774 57.9304 204.136 58.1 204.136 58.4597C204.136 58.8804 203.658 59.1382 203.051 59.1382C202.511 59.1382 201.918 58.9211 201.597 58.6293L201.187 59.2196C201.665 59.6268 202.423 59.8371 203.051 59.8371C204.054 59.8371 204.908 59.3214 204.908 58.385C204.908 57.53 204.164 57.2179 203.413 57.1161L203.092 57.0754C202.491 56.9872 202.129 56.8379 202.129 56.4579C202.129 56.0372 202.552 55.7726 203.174 55.7726ZM211.168 55.8472H209.673V59.7488H208.922V55.8472H207.42V55.1415H211.168V55.8472ZM217.394 56.4714C217.394 55.6164 216.814 55.1415 215.749 55.1415H213.844V59.7488H214.595V57.8082H214.971L216.445 59.7488H217.374L215.845 57.8082C216.793 57.7742 217.394 57.2585 217.394 56.4714ZM214.588 57.1364V55.8404V55.8336H215.728C216.316 55.8336 216.616 56.0236 216.616 56.4714C216.616 56.9193 216.329 57.1364 215.728 57.1364H214.588ZM224.153 57.9371C224.153 59.2195 223.279 59.837 222.187 59.837C221.094 59.837 220.221 59.2195 220.221 57.9371V55.1483H220.972V57.8828C220.972 58.7581 221.47 59.1245 222.194 59.1245C222.917 59.1245 223.416 58.7649 223.416 57.8828V55.1483H224.167V57.9371H224.153ZM230.734 56.4375L231.362 56.0236H231.349C230.987 55.4264 230.256 55.06 229.43 55.06C228.003 55.06 227 56.0711 227 57.4485C227 58.826 228.003 59.837 229.43 59.837C230.243 59.837 230.939 59.4842 231.335 58.9074L230.727 58.4596C230.441 58.8803 229.983 59.1245 229.437 59.1245C228.488 59.1245 227.792 58.446 227.792 57.4485C227.792 56.4511 228.488 55.7725 229.437 55.7725C229.99 55.7725 230.454 56.0304 230.734 56.4375ZM237.616 55.8472H236.12V59.7488H235.369V55.8472H233.868V55.1415H237.616V55.8472ZM240.285 59.7556H241.036V55.1483H240.285V59.7556ZM248.819 57.4485C248.819 58.826 247.815 59.837 246.388 59.837C244.961 59.837 243.958 58.826 243.958 57.4485C243.958 56.0711 244.961 55.06 246.388 55.06C247.815 55.06 248.819 56.0711 248.819 57.4485ZM244.75 57.4485C244.75 58.4392 245.446 59.1245 246.395 59.1245C247.344 59.1245 248.04 58.446 248.04 57.4485C248.04 56.4511 247.344 55.7725 246.395 55.7725C245.446 55.7725 244.75 56.4511 244.75 57.4485ZM255.079 59.7556H255.755V55.1483H255.004V58.4867L252.417 55.1483H251.741V59.7556H252.492V56.4171L255.079 59.7556Z" fill="#E1E1EB"/>
</svg>
