<svg width="24" height="24" viewBox="0 0 24 24" xmlns="http://www.w3.org/2000/svg">
  <path
    d="M12 3.84C7.49325 3.84 3.83997 7.49328 3.83997 12C3.83997 16.5067 7.49325 20.16 12 20.16C16.5067 20.16 20.16 16.5067 20.16 12C20.16 7.49328 16.5067 3.84 12 3.84ZM12 4.32C16.2417 4.32 19.68 7.75824 19.68 12C19.68 16.2418 16.2417 19.68 12 19.68C7.75821 19.68 4.31997 16.2418 4.31997 12C4.31997 7.75824 7.75821 4.32 12 4.32ZM12 8.16C11.735 8.16 11.52 8.37504 11.52 8.64C11.52 8.90496 11.735 9.12 12 9.12C12.2649 9.12 12.48 8.90496 12.48 8.64C12.48 8.37504 12.2649 8.16 12 8.16ZM12 10.56C11.8675 10.56 11.76 10.6675 11.76 10.8V16.56C11.76 16.6925 11.8675 16.8 12 16.8C12.1324 16.8 12.24 16.6925 12.24 16.56V10.8C12.24 10.6675 12.1324 10.56 12 10.56Z"
    fill="currentColor"/>
</svg>
