<svg width="120" height="120" viewBox="0 0 120 120" fill="currentColor" xmlns="http://www.w3.org/2000/svg">
<g clip-path="url(#clip0_75_49)">
<path d="M111.825 0.225098L111.075 0.675098L106.05 5.7751L105.375 7.8001L106.575 9.5251L108.75 9.6001L109.425 9.1501L114.525 4.1251L115.2 2.0251L113.925 0.300098L111.825 0.225098ZM99.9751 12.0751L99.3001 12.5251L94.2001 17.6251L93.5251 19.6501L94.7251 21.4501L96.9001 21.5251L97.5751 21.0001L102.675 15.9001L103.35 13.8751L102.15 12.1501L99.9751 12.0751ZM20.8501 23.2501C20.3063 23.3251 19.8001 23.597 19.4251 24.0001C14.5594 28.997 8.80319 38.5032 7.50007 50.4751C6.23444 62.1657 9.50632 76.1251 22.1251 89.4751L6.22507 105.6H2.40007C2.32507 105.6 2.25007 105.6 2.17507 105.6C2.10007 105.6 2.02507 105.6 1.95007 105.6C0.80632 105.816 -0.0186809 106.828 6.90828e-05 108V117.6C6.90828e-05 118.922 1.07819 120 2.40007 120H40.8001C42.1219 120 43.2001 118.922 43.2001 117.6V108.15C43.2001 108.103 43.2001 108.047 43.2001 108V103.35C49.5469 105.459 55.8376 106.022 61.6501 105.525C73.7344 104.484 83.6813 99.2439 88.8001 94.1251C89.2688 93.6751 89.5313 93.047 89.5313 92.4001C89.5313 91.7532 89.2688 91.1251 88.8001 90.6751L65.0251 66.6751L68.1001 54.8251C68.9626 55.0501 69.8626 55.2001 70.8001 55.2001C76.7344 55.2001 81.6001 50.3345 81.6001 44.4001C81.6001 38.4657 76.7344 33.6001 70.8001 33.6001C64.8657 33.6001 60.0001 38.4657 60.0001 44.4001C60.0001 44.4282 60.0001 44.447 60.0001 44.4751L46.3501 47.7751L22.8001 24.0001C22.3501 23.522 21.7313 23.2595 21.0751 23.2501C21.0001 23.2501 20.9251 23.2501 20.8501 23.2501ZM88.1251 23.9251L87.3751 24.3751L82.2751 29.4751L81.6001 31.5751L82.8751 33.3001L84.9751 33.3751L85.7251 32.9251L90.8251 27.8251L91.5001 25.8001L90.2251 24.0001L88.1251 23.9251ZM21.4501 29.4751L83.3251 92.0251C78.7594 95.7376 70.8938 99.8907 61.2001 100.725C55.3032 101.231 48.9376 100.613 42.5251 98.1001C42.4969 98.072 42.4782 98.0532 42.4501 98.0251C42.4032 98.0064 42.3469 97.9688 42.3001 97.9501C41.9344 97.6501 41.4938 97.472 41.0251 97.4251C36.5063 95.4376 31.9688 92.5501 27.6001 88.3501C27.5813 88.3032 27.5532 88.247 27.5251 88.2001C27.4969 88.172 27.4782 88.1532 27.4501 88.1251C27.2251 87.7782 26.9157 87.497 26.5501 87.3001C26.5032 87.2532 26.4469 87.197 26.4001 87.1501C13.8751 74.4001 11.0626 61.7064 12.2251 51.0001C13.2563 41.4939 17.6719 34.0407 21.4501 29.4751ZM70.8001 38.4001C74.1376 38.4001 76.8001 41.0626 76.8001 44.4001C76.8001 47.7376 74.1376 50.4001 70.8001 50.4001C69.7313 50.4001 68.7376 50.1282 67.8751 49.6501C67.6969 49.5001 67.4907 49.3689 67.2751 49.2751C66.3001 48.5814 65.5876 47.5782 65.1751 46.4251C65.1938 45.9845 65.0907 45.5438 64.8751 45.1501C64.8469 44.897 64.8001 44.6626 64.8001 44.4001C64.8001 41.0626 67.4626 38.4001 70.8001 38.4001ZM61.1251 49.1251C61.7626 50.4188 62.6719 51.5626 63.7501 52.5001L61.1251 62.7001L50.2501 51.7501L61.1251 49.1251ZM25.5001 92.8501C29.6626 96.6282 34.0407 99.3845 38.4001 101.4V105.6H12.9001L25.5001 92.8501ZM4.80007 110.4H38.4001V115.2H4.80007V110.4Z" fill="currentColor"/>
</g>
<defs>
<clipPath id="clip0_75_49">
<rect width="120" height="120" fill="white"/>
</clipPath>
</defs>
</svg>
