<svg width="24" height="24" viewBox="0 0 24 24" xmlns="http://www.w3.org/2000/svg">
  <path
    d="M4.99023 3.98798C4.7913 3.98804 4.5969 4.04741 4.43189 4.15853C4.26688 4.26964 4.13876 4.42744 4.0639 4.61175C3.98905 4.79607 3.97086 4.99851 4.01166 5.19322C4.05247 5.38792 4.15041 5.56603 4.29297 5.70478L10.5859 11.9977L4.29297 18.2907C4.197 18.3829 4.12037 18.4932 4.06759 18.6154C4.0148 18.7375 3.98692 18.8689 3.98556 19.002C3.98421 19.135 4.00942 19.267 4.05971 19.3902C4.10999 19.5133 4.18436 19.6252 4.27843 19.7193C4.37251 19.8134 4.48442 19.8878 4.6076 19.938C4.73077 19.9883 4.86275 20.0135 4.99579 20.0122C5.12883 20.0108 5.26026 19.9829 5.38239 19.9302C5.50452 19.8774 5.61489 19.8008 5.70703 19.7048L12 13.4118L18.293 19.7048C18.3851 19.8008 18.4955 19.8774 18.6176 19.9302C18.7397 19.983 18.8712 20.0108 19.0042 20.0122C19.1373 20.0135 19.2692 19.9883 19.3924 19.938C19.5156 19.8878 19.6275 19.8134 19.7216 19.7193C19.8157 19.6252 19.89 19.5133 19.9403 19.3902C19.9906 19.267 20.0158 19.135 20.0144 19.002C20.0131 18.8689 19.9852 18.7375 19.9324 18.6154C19.8796 18.4932 19.803 18.3829 19.707 18.2907L13.4141 11.9977L19.707 5.70478C19.8515 5.56432 19.9502 5.38348 19.9902 5.18596C20.0301 4.98844 20.0095 4.78345 19.931 4.59787C19.8524 4.41228 19.7196 4.25475 19.55 4.14592C19.3804 4.03709 19.1819 3.98204 18.9805 3.98798C18.7207 3.99572 18.4741 4.1043 18.293 4.29072L12 10.5837L5.70703 4.29072C5.61384 4.19492 5.5024 4.11878 5.37928 4.06678C5.25617 4.01479 5.12388 3.98799 4.99023 3.98798Z"
    fill="currentColor"/>
</svg>
