<svg width="24" height="24" viewBox="0 0 24 24" xmlns="http://www.w3.org/2000/svg">
  <path
    d="M15.8401 5.52148C14.3843 5.52148 13.2001 6.81316 13.2001 8.40148C13.2001 9.9898 14.3843 11.2815 15.8401 11.2815C17.2959 11.2815 18.4801 9.9898 18.4801 8.40148C18.4801 6.81316 17.2959 5.52148 15.8401 5.52148ZM15.8401 6.00148C17.031 6.00148 18.0001 7.07812 18.0001 8.40148C18.0001 9.72484 17.031 10.8015 15.8401 10.8015C14.6492 10.8015 13.6801 9.72484 13.6801 8.40148C13.6801 7.07812 14.6492 6.00148 15.8401 6.00148ZM8.1601 6.96148C6.90778 6.96148 5.85828 7.9187 5.58948 9.19742C5.39508 10.1008 4.86661 10.8818 4.40917 11.5534C4.17205 11.9014 4.38415 12.3825 4.79167 12.4871C6.73903 12.9873 9.57974 12.9873 11.5285 12.4871C11.9365 12.3825 12.1669 11.8874 11.911 11.5534C11.0182 10.3874 10.8116 9.51445 10.7195 9.14773C10.4339 7.89445 9.3961 6.96148 8.1601 6.96148ZM6.18385 8.88148H10.1373C10.2535 9.1762 10.3201 9.49972 10.3201 9.84148C10.3201 11.1648 9.35098 12.2415 8.1601 12.2415C6.96922 12.2415 6.0001 11.1648 6.0001 9.84148C6.0001 9.49972 6.06721 9.1762 6.18385 8.88148ZM15.8401 12.2415C13.8918 12.2415 12.1397 13.0378 11.0739 14.3265C10.2103 13.9119 9.21235 13.6815 8.1601 13.6815C5.75674 13.6815 3.63526 14.8815 2.75542 16.7396C2.41558 17.4558 2.88478 18.4815 3.8851 18.4815H12.4351C13.269 18.4815 13.7749 17.7304 13.6585 17.0415H20.1151C21.1159 17.0415 21.5846 16.0158 21.2448 15.2996C20.365 13.4415 18.2435 12.2415 15.8401 12.2415ZM15.8401 12.7215C18.0246 12.7215 20.0226 13.8403 20.8107 15.5049C21.069 16.0507 20.5956 16.5615 20.1151 16.5615H13.471C13.0357 15.7387 12.3532 15.0552 11.5098 14.5609C12.496 13.4351 14.1037 12.7215 15.8401 12.7215ZM8.1601 14.1615C10.3446 14.1615 12.3426 15.2803 13.1307 16.9449C13.3827 17.4777 12.9281 18.0015 12.4351 18.0015H3.8851C3.40462 18.0015 2.93124 17.4907 3.18948 16.9449C3.97764 15.2803 5.97562 14.1615 8.1601 14.1615Z"
    fill="currentColor"/>
</svg>
