<svg width="120" height="120" viewBox="0 0 120 120" fill="currentColor" xmlns="http://www.w3.org/2000/svg">
<path d="M60 23.4751L59.25 23.7751L1.65 43.3501L0 43.8751V103.2H13.35C12.5156 104.625 12 106.238 12 108C12 113.278 16.3219 117.6 21.6 117.6C26.8781 117.6 31.2 113.278 31.2 108C31.2 106.238 30.6844 104.625 29.85 103.2H43.2V117.6H76.8V103.2H92.55C91.7156 104.625 91.2 106.238 91.2 108C91.2 113.278 95.5219 117.6 100.8 117.6C106.078 117.6 110.4 113.278 110.4 108C110.4 106.238 109.884 104.625 109.05 103.2H120V43.8751L118.35 43.3501L60.75 23.7751L60 23.4751ZM60 28.5001L115.2 47.3251V98.4001H76.8V50.4001H43.2V98.4001H4.8V47.3251L60 28.5001ZM12 50.4001V79.2001H36V50.4001H12ZM84 50.4001V79.2001H108V50.4001H84ZM16.8 55.2001H31.2V74.4001H16.8V55.2001ZM48 55.2001H72V98.4001H48V55.2001ZM88.8 55.2001H103.2V74.4001H88.8V55.2001ZM21.6 103.2C24.2813 103.2 26.4 105.319 26.4 108C26.4 110.681 24.2813 112.8 21.6 112.8C18.9188 112.8 16.8 110.681 16.8 108C16.8 105.319 18.9188 103.2 21.6 103.2ZM48 103.2H72V105.6H48V103.2ZM100.8 103.2C103.481 103.2 105.6 105.319 105.6 108C105.6 110.681 103.481 112.8 100.8 112.8C98.1188 112.8 96 110.681 96 108C96 105.319 98.1188 103.2 100.8 103.2ZM48 110.4H72V112.8H48V110.4Z" fill="currentColor"/>
</svg>
