<svg width="120" height="120" viewBox="0 0 120 120" fill="currentColor" xmlns="http://www.w3.org/2000/svg">
<path d="M33.9141 9.6001C15.2133 9.6001 0 24.8818 0 43.6642C0 46.8466 0.306038 49.8841 0.848438 52.8001H5.76094C5.14654 49.8889 4.8 46.8514 4.8 43.6642C4.8 27.529 17.8581 14.4001 33.9141 14.4001C42.7701 14.4001 50.2793 18.1503 56.2313 25.5423C56.6921 26.1183 58.0547 27.872 58.0547 27.872C58.9643 29.0432 60.9373 29.0432 61.8469 27.872C61.8469 27.872 63.2023 26.1254 63.6703 25.547C69.5359 18.2534 77.2875 14.4001 86.0859 14.4001C102.142 14.4001 115.2 27.529 115.2 43.6642C115.2 71.5018 89.9009 88.516 71.4281 100.936C67.0937 103.85 63.173 107.029 59.9906 109.678C57.449 107.59 52.3232 103.456 48.5672 100.931C35.9912 92.4737 20.2563 81.8833 11.4891 67.2001H5.925C14.8506 84.0265 32.1602 95.6852 45.8906 104.92C50.7482 108.184 58.381 114.573 58.4578 114.638C58.8706 114.986 59.4015 115.149 59.9391 115.149C60.5607 115.149 61.191 114.931 61.6734 114.53C64.8726 111.851 69.2567 108.18 74.1047 104.92C93.4751 91.8932 120 74.0578 120 43.6642C120 24.8818 104.787 9.6001 86.0859 9.6001C75.7923 9.6001 66.7548 14.0662 59.9484 22.5142C53.1444 14.0662 44.1405 9.6001 33.9141 9.6001ZM41.9766 26.4001C41.4283 26.4061 40.8987 26.5996 40.4757 26.9483C40.0527 27.2971 39.7619 27.7802 39.6516 28.3173L32.9297 60.9751L28.6453 49.5564C28.4809 49.1196 28.1927 48.7402 27.816 48.4647C27.4393 48.1892 26.9904 48.0294 26.5243 48.0051C26.0583 47.9807 25.5952 48.0927 25.1918 48.3275C24.7884 48.5622 24.4622 48.9094 24.2531 49.3267L20.1188 57.6001H4.8C4.48197 57.5956 4.16622 57.6544 3.8711 57.773C3.57597 57.8915 3.30736 58.0676 3.08088 58.2909C2.85439 58.5142 2.67454 58.7803 2.55179 59.0737C2.42903 59.3671 2.36582 59.682 2.36582 60.0001C2.36582 60.3182 2.42903 60.633 2.55179 60.9265C2.67454 61.2199 2.85439 61.486 3.08088 61.7093C3.30736 61.9326 3.57597 62.1087 3.8711 62.2272C4.16622 62.3458 4.48197 62.4046 4.8 62.4001H21.6C22.0457 62.4001 22.4827 62.276 22.8619 62.0417C23.241 61.8074 23.5475 61.4722 23.7469 61.0735L26.0859 56.3954L31.3547 70.4439C31.5388 70.9293 31.8754 71.3419 32.3139 71.6198C32.7525 71.8977 33.2693 72.026 33.7869 71.9853C34.3044 71.9446 34.7949 71.7372 35.1846 71.3942C35.5743 71.0513 35.8424 70.5911 35.9484 70.0829L41.85 41.4095L49.2375 82.0313C49.3309 82.5469 49.5904 83.0178 49.9764 83.3721C50.3624 83.7263 50.8538 83.9446 51.3754 83.9935C51.8971 84.0423 52.4205 83.9192 52.8656 83.6427C53.3107 83.3663 53.6531 82.9519 53.8406 82.4626L63.5719 57.1595L68.5547 70.4439C68.7126 70.8622 68.9842 71.2281 69.3389 71.5003C69.6936 71.7725 70.1173 71.9403 70.5622 71.9846C71.0071 72.029 71.4556 71.9482 71.8571 71.7513C72.2585 71.5544 72.597 71.2493 72.8344 70.8704L78.1313 62.4001H89.4516C89.8721 63.1285 90.4767 63.7337 91.2048 64.1549C91.9329 64.5761 92.7589 64.7986 93.6 64.8001C94.873 64.8001 96.0939 64.2944 96.9941 63.3942C97.8943 62.494 98.4 61.2731 98.4 60.0001C98.4 58.7271 97.8943 57.5062 96.9941 56.606C96.0939 55.7058 94.873 55.2001 93.6 55.2001C92.7581 55.2008 91.9311 55.4229 91.2022 55.8441C90.4732 56.2654 89.8678 56.871 89.4469 57.6001H76.8C76.3929 57.6004 75.9926 57.7043 75.6368 57.9019C75.2809 58.0995 74.9811 58.3844 74.7656 58.7298L71.3391 64.2095L65.8453 49.5564C65.674 49.101 65.3684 48.7085 64.969 48.4308C64.5696 48.1531 64.0953 48.0033 63.6088 48.0012C63.1223 47.9992 62.6467 48.145 62.245 48.4194C61.8433 48.6938 61.5345 49.0837 61.3594 49.5376L52.4297 72.7501L44.3625 28.3688C44.2608 27.812 43.9656 27.3091 43.529 26.9489C43.0924 26.5886 42.5426 26.3943 41.9766 26.4001Z" fill="currentColor"/>
</svg>
