<svg width="120" height="120" viewBox="0 0 120 120" fill="currentColor" xmlns="http://www.w3.org/2000/svg">
<path d="M79.1625 7.19995C65.5781 7.45308 56.9906 13.4343 53.175 22.2375C49.5375 30.6093 50.0906 41.1375 52.65 51.7968C52.2281 52.0968 51.975 52.125 51.5625 52.6781C50.6343 53.8875 50.1562 55.725 50.4187 57.8906C50.8406 61.3593 51.675 64.0031 52.7718 65.9531C53.5312 67.2843 54.5156 68.2218 55.6875 68.8593C56.7468 74.6531 59.8312 79.5468 62.4 82.35V99.2531L37.4062 110.616C36.6093 110.962 36.0562 111.712 35.9718 112.575C35.8781 113.437 36.2625 114.281 36.975 114.778C37.6875 115.284 38.6062 115.359 39.3937 114.984L67.2 102.347V80.6062L66.4968 79.9031C64.5281 77.9343 60.5343 72.0562 59.9906 66.9468L59.775 64.9687L57.7968 64.8093C58.2843 64.8468 57.6281 64.7906 56.9531 63.5906C56.2687 62.3812 55.5375 60.3 55.1812 57.3093C55.0218 56.0062 55.2468 55.7531 55.3781 55.5843C55.5 55.4156 55.7531 55.275 56.4468 54.8531L57.975 53.925L57.525 52.2C54.7687 41.5875 54.4406 31.3781 57.5718 24.15C60.7125 16.9312 66.9468 12.2343 79.2093 12C81.975 12.0093 84.7218 12.8343 86.9625 14.0343C89.1937 15.2343 90.8812 16.8656 91.5093 17.9812L92.1 19.0125L93.2718 19.1812C97.4531 19.7531 99.8531 21.4125 101.484 23.7562C103.116 26.0906 103.931 29.2875 104.1 32.8218C104.456 39.9 102.234 48.0843 100.922 52.0406L100.312 53.8593L101.953 54.8531C102.647 55.2656 102.9 55.4156 103.022 55.5843C103.153 55.7531 103.378 56.0062 103.219 57.3093C102.862 60.3 102.131 62.3812 101.447 63.5906C100.772 64.7906 100.116 64.8468 100.603 64.8093L98.625 64.9687L98.4093 66.9375C97.8656 72.0468 93.8718 77.9343 91.9031 79.9031L91.2 80.6062V102.281L116.522 114.947C117.712 115.537 119.156 115.059 119.747 113.878C120.337 112.687 119.859 111.244 118.678 110.653L96 99.3187V82.35C98.5781 79.5375 101.653 74.6437 102.712 68.8593C103.884 68.2218 104.869 67.2843 105.628 65.9531C106.734 64.0031 107.569 61.3593 107.981 57.8906C108.244 55.725 107.766 53.8875 106.837 52.6781C106.481 52.2 106.275 52.2093 105.909 51.9281C107.334 47.3906 109.275 40.0593 108.9 32.5875C108.694 28.4812 107.775 24.375 105.412 21C103.237 17.8875 99.6375 15.7031 94.9968 14.7843C93.6468 12.8625 91.725 11.1468 89.2406 9.8062C86.3718 8.2687 82.9031 7.19995 79.2 7.19995H79.1625ZM32.5593 7.68745C30.1687 7.71558 27.7406 7.9687 25.3312 8.44683C15.7031 10.3687 6.40309 16.4062 2.52184 28.0406C-2.15629 42.075 3.00934 53.6718 9.16871 62.4187C8.01559 64.5187 6.37496 67.125 4.76246 69.4875C3.82496 70.8468 2.96246 72.0843 2.32496 73.0218C1.99684 73.4906 1.73434 73.8843 1.51871 74.2125C1.41559 74.3812 1.33121 74.5218 1.23746 74.7C1.19059 74.7843 1.14371 74.8781 1.07809 75.0281C1.01246 75.1687 0.871835 75.2718 0.871835 76.0125L1.31246 77.4C1.31246 77.4093 1.56559 77.7093 1.68746 77.8125C1.79996 77.925 1.91246 78 2.00621 78.0656C2.39996 78.3093 2.61559 78.3375 2.77496 78.375C3.10309 78.45 3.23434 78.4406 3.37496 78.45C3.63746 78.45 3.84371 78.4406 4.08746 78.4125C4.57496 78.375 5.17496 78.2812 5.89684 78.15C7.34996 77.8781 9.29059 77.4187 11.4 76.7062C15.1406 75.4406 19.3031 73.2093 22.2937 69.7406C23.6437 70.1718 26.0062 70.9968 30.225 71.2218C35.25 71.5031 41.6156 70.7906 47.0343 66.7218C48.1031 65.925 48.3187 64.425 47.5218 63.3656C46.725 62.2968 45.225 62.0812 44.1656 62.8781C39.9843 66.0093 34.8281 66.6656 30.4875 66.4312C26.1562 66.1968 22.6687 65.0343 22.4062 64.9406L20.6437 64.3125L19.6031 65.8687C17.7281 68.6906 13.5937 70.9031 9.86246 72.1593C9.33746 72.3375 8.99996 72.375 8.49371 72.525C8.58746 72.3937 8.63434 72.3187 8.71871 72.1968C10.6125 69.4218 12.8156 66.1312 14.1468 63.4781L14.8031 62.1562L13.9312 60.975C7.75309 52.6312 2.76559 42.5062 7.07809 29.5593C10.3968 19.5937 17.8968 14.8312 26.2687 13.1531C34.6406 11.475 43.8375 13.2562 49.1625 16.4625C49.9031 16.9312 50.8406 16.9687 51.6093 16.5562C52.3875 16.1343 52.8656 15.3281 52.875 14.4562C52.875 13.575 52.3968 12.7687 51.6375 12.3375C46.6312 9.34683 39.75 7.57495 32.5593 7.68745ZM31.0125 21.5625C29.6906 21.5812 28.6312 22.6781 28.65 24V29.8406H19.125C18.2531 29.8218 17.4468 30.2812 17.0156 31.0218C16.575 31.7718 16.575 32.7 17.0156 33.45C17.4468 34.1906 18.2531 34.65 19.125 34.6406H38.0156C37.7156 35.8875 37.2 37.5093 36.1968 39.375C35.3156 41.025 34.0687 42.8062 32.325 44.5406C29.5031 41.6625 27.975 39.45 27.975 39.45C27.5156 38.775 26.7562 38.3718 25.9406 38.3906C25.05 38.4 24.2343 38.9062 23.8312 39.6937C23.4281 40.4906 23.4937 41.4375 24.0093 42.1687C24.0093 42.1687 25.6312 44.5125 28.6125 47.5875C26.4937 49.0125 23.925 50.3343 20.7375 51.4218C19.8937 51.6843 19.2562 52.3687 19.0781 53.2312C18.9 54.0937 19.2 54.9843 19.875 55.5562C20.55 56.1281 21.4687 56.2781 22.2937 55.9593C26.2781 54.6 29.4937 52.8468 32.1375 50.9343C33.6 52.2093 35.2125 53.5125 37.0406 54.7781C37.7437 55.2937 38.6718 55.3875 39.4687 55.0218C40.2656 54.6562 40.8 53.8875 40.8562 53.0156C40.9218 52.1437 40.5 51.3 39.7593 50.8218C38.3156 49.8281 37.0312 48.7968 35.8406 47.7843C37.8656 45.7406 39.3656 43.6312 40.425 41.6531C41.9156 38.8687 42.5718 36.3843 42.9 34.6406H45.15C46.0125 34.65 46.8187 34.1906 47.25 33.45C47.6906 32.7 47.6906 31.7718 47.25 31.0218C46.8187 30.2812 46.0125 29.8218 45.15 29.8406H41.2125C41.0812 29.8125 40.9406 29.8031 40.8093 29.8031C40.6687 29.8031 40.5375 29.8125 40.3968 29.8406H33.45V24C33.45 23.3531 33.1968 22.725 32.7468 22.2656C32.2875 21.8156 31.6593 21.5625 31.0125 21.5625ZM79.2843 26.4C78.2343 26.3625 77.2781 27.0187 76.9312 28.0125L68.6906 51.8156C68.625 51.9468 68.5781 52.0968 68.55 52.2375L64.9312 62.6812C64.5 63.9375 65.1656 65.2968 66.4125 65.7375C67.6687 66.1687 69.0375 65.5031 69.4687 64.2468L72.6 55.2H85.8L88.9312 64.2468C89.3625 65.5031 90.7312 66.1687 91.9875 65.7375C93.2343 65.2968 93.9 63.9375 93.4687 62.6812L81.4687 28.0125C81.15 27.075 80.2781 26.4375 79.2843 26.4ZM79.2 36.1406L84.1406 50.4H74.2593L79.2 36.1406Z" fill="currentColor"/>
</svg>
