<svg width="120" height="120" viewBox="0 0 120 120" fill="currentColor" xmlns="http://www.w3.org/2000/svg">
<g clip-path="url(#clip0_75_62)">
<path d="M24.5249 0C22.5186 0 20.8124 0.965626 19.5749 2.325L19.4999 2.25L19.4249 2.325C19.4249 2.35313 19.4249 2.37187 19.4249 2.4C19.378 2.41875 19.3218 2.44687 19.2749 2.475C19.2186 2.55 19.0686 2.75625 18.8999 3C18.8718 3.0375 18.853 3.02813 18.8249 3.075C18.2718 3.85313 17.878 4.78125 17.6999 5.85C17.6999 5.87813 17.6999 5.89687 17.6999 5.925L-0.000118064 117.225C-0.206368 118.547 0.703008 119.794 2.02488 120C3.34676 120.206 4.59363 119.297 4.79988 117.975L22.4249 6.675C22.4718 6.38437 22.5936 6.13125 22.7999 5.85C22.828 5.80313 22.8561 5.74687 22.8749 5.7C22.8561 5.72813 22.9218 5.65313 22.9499 5.625C22.978 5.59687 22.9968 5.57813 23.0249 5.55C23.4186 5.1 23.9155 4.8 24.5249 4.8H95.4749C96.2155 4.8 96.8343 5.16563 97.1999 5.775C97.1999 5.82187 97.1999 5.87813 97.1999 5.925C97.1905 5.90625 97.2749 5.925 97.2749 5.925C97.2936 5.97187 97.2655 5.9625 97.2749 6C97.2936 6.02813 97.2936 5.97187 97.3499 6.075C97.3499 6.10313 97.3499 6.12187 97.3499 6.15C97.3499 6.15937 97.3499 6.225 97.3499 6.225C97.4436 6.42187 97.5561 6.5625 97.5749 6.675L115.2 117.975C115.406 119.297 116.653 120.206 117.975 120C119.297 119.794 120.206 118.547 120 117.225L102.3 5.925C102.3 5.89687 102.3 5.87813 102.3 5.85C102.197 5.22187 101.981 4.725 101.775 4.275C101.672 4.0125 101.681 4.07813 101.7 4.125C101.709 4.14375 101.662 3.96563 101.7 4.05C101.681 4.00313 101.653 3.94687 101.625 3.9C101.587 3.83437 101.456 3.6 101.325 3.375C101.297 3.32813 101.278 3.27187 101.25 3.225H101.175C99.9655 1.34063 97.8843 0 95.4749 0H24.5249ZM35.5499 14.4C34.528 14.5875 33.7499 15.4031 33.5999 16.425L19.1999 117.225C18.9936 118.547 19.903 119.794 21.2249 120C22.5468 120.206 23.7936 119.297 23.9999 117.975L38.0999 19.2H47.7749V21.6C47.7749 25.6594 51.1405 29.025 55.1999 29.025H57.5999V63.075C56.1655 63.9094 55.1999 65.4281 55.1999 67.2C55.1999 69.1875 56.3999 70.8937 58.1249 71.625C59.053 75.7969 61.1343 78.5156 62.9999 80.55C65.4655 83.2312 67.1999 84.6281 67.1999 88.8C67.1999 92.8031 64.003 96 59.9999 96C55.9968 96 52.7999 92.8031 52.7999 88.8C52.8093 87.9375 52.3593 87.1312 51.6093 86.6906C50.8593 86.2594 49.9405 86.2594 49.1905 86.6906C48.4405 87.1312 47.9905 87.9375 47.9999 88.8C47.9999 95.4 53.3999 100.8 59.9999 100.8C66.5999 100.8 71.9999 95.4 71.9999 88.8C71.9999 83.0719 68.9343 79.8562 66.5999 77.325C64.9124 75.4875 63.4405 73.9406 62.7749 71.1C64.003 70.2281 64.7999 68.8219 64.7999 67.2C64.7999 65.4281 63.8343 63.9094 62.3999 63.075V29.025H64.7999C68.8593 29.025 72.2249 25.6594 72.2249 21.6V19.2H81.8999L95.9999 117.975C96.2061 119.297 97.453 120.206 98.7749 120C100.097 119.794 101.006 118.547 100.8 117.225L86.3999 16.425C86.2124 15.2438 85.1905 14.3813 83.9999 14.4H35.9999C35.9249 14.4 35.8499 14.4 35.7749 14.4C35.6999 14.4 35.6249 14.4 35.5499 14.4ZM53.0249 19.2H66.9749V21.6C66.9749 22.8281 66.028 23.775 64.7999 23.775H55.1999C53.9718 23.775 53.0249 22.8281 53.0249 21.6V19.2Z" fill="currentColor"/>
</g>
<defs>
<clipPath id="clip0_75_62">
<rect width="120" height="120" fill="white"/>
</clipPath>
</defs>
</svg>
