<svg width="16" height="16" viewBox="0 0 16 16" xmlns="http://www.w3.org/2000/svg">
  <path
    d="M8 2C6.52933 2 5.33333 3.196 5.33333 4.66667C5.33333 6.13733 6.52933 7.33333 8 7.33333C9.47067 7.33333 10.6667 6.13733 10.6667 4.66667C10.6667 3.196 9.47067 2 8 2ZM8 3.33333C8.73533 3.33333 9.33333 3.93133 9.33333 4.66667C9.33333 5.402 8.73533 6 8 6C7.26467 6 6.66667 5.402 6.66667 4.66667C6.66667 3.93133 7.26467 3.33333 8 3.33333ZM8 9.33333C5.906 9.33333 2 10.3633 2 12.3333V14H14V12.3333C14 10.3633 10.094 9.33333 8 9.33333ZM7.11198 10.724L7.41667 11.3333L7.19401 12.6667H3.33333V12.3333C3.33333 11.8315 5.18905 10.9511 7.11198 10.724ZM8.88802 10.724C10.811 10.9511 12.6667 11.8315 12.6667 12.3333V12.6667H11.3333V12H10V12.6667H8.80599L8.58333 11.3333L8.88802 10.724Z"
    fill="currentColor"/>
</svg>
