<svg width="120" height="120" viewBox="0 0 120 120" fill="currentColor" xmlns="http://www.w3.org/2000/svg">
<path d="M72 9.6001C65.4758 9.6001 60.7353 11.7903 58.3875 15.6845C56.2445 19.2389 56.3663 23.6902 57.5156 28.2892C56.9745 29.1681 56.6218 30.2159 56.775 31.5704C56.775 31.572 56.775 31.5735 56.775 31.5751C56.9549 33.1431 57.3568 34.3591 58.0687 35.3157C58.3553 35.7008 58.8253 35.72 59.2031 35.9814C59.5397 37.4811 59.9551 38.9891 60.6984 40.0126C61.1993 40.7023 61.7176 41.2892 62.1984 41.761C62.2653 41.8267 62.3376 41.86 62.4 41.9204V45.0235C62.16 45.5751 61.7307 46.0638 60.6562 46.6595C59.4982 47.3014 57.8365 47.9319 56.0672 48.7782C54.2978 49.6245 52.3787 50.7138 50.8218 52.5001C49.265 54.2864 48.181 56.7722 48.0047 59.8642C47.9862 60.1902 48.0345 60.5165 48.1465 60.8233C48.2585 61.13 48.4319 61.4106 48.6561 61.648C48.8804 61.8854 49.1507 62.0745 49.4505 62.2039C49.7504 62.3332 50.0734 62.4 50.4 62.4001H91.2C91.5265 62.4 91.8496 62.3332 92.1494 62.2039C92.4493 62.0745 92.7196 61.8854 92.9438 61.648C93.168 61.4106 93.3415 61.13 93.4535 60.8233C93.5655 60.5165 93.6137 60.1902 93.5953 59.8642C93.419 56.7723 92.3348 54.2868 90.7781 52.5001C89.2214 50.7134 87.3069 49.6202 85.5375 48.7735C83.768 47.9269 82.102 47.2967 80.9437 46.6548C79.8691 46.0592 79.4397 45.5738 79.2 45.0235V41.897C79.2671 41.8293 79.3521 41.7882 79.425 41.7142C79.8982 41.2335 80.403 40.6402 80.8922 39.9517C81.6123 38.9379 82.0102 37.4782 82.3453 36.0282C82.7253 35.7664 83.1964 35.7496 83.4844 35.3626C84.197 34.405 84.5996 33.1855 84.7781 31.6173C84.8962 30.588 84.7968 29.6317 84.4406 28.7673C84.3784 28.6164 84.1312 28.5468 84.0515 28.397C84.8888 25.1425 85.1474 21.6143 83.8969 18.4267C82.6549 15.2607 79.4577 13.0153 75.2672 12.4454L73.9547 10.6032C73.7322 10.2925 73.4388 10.0394 73.0988 9.86488C72.7588 9.69041 72.3821 9.59963 72 9.6001ZM70.8937 14.5829L71.7609 15.797C71.9833 16.1077 72.2768 16.3608 72.6167 16.5353C72.9567 16.7098 73.3335 16.8006 73.7156 16.8001C77.3348 16.8001 78.6078 18.085 79.4297 20.1798C80.2515 22.2746 80.1341 25.4623 79.2562 28.2142C79.1131 28.6678 79.108 29.1537 79.2415 29.6102C79.3751 30.0667 79.6412 30.4732 80.0062 30.7782C80.018 30.849 80.0355 30.8536 80.0109 31.0688C80.0109 31.0704 80.0109 31.072 80.0109 31.0735C79.9076 31.9817 79.7263 32.2693 79.6734 32.3579C79.2038 32.5222 78.7969 32.8282 78.5089 33.2338C78.2208 33.6394 78.0659 34.1245 78.0656 34.622C78.0656 35.1399 77.6319 36.2517 76.9781 37.172C76.6512 37.6321 76.2931 38.0493 76.0031 38.3438C75.713 38.6383 75.3646 38.8512 75.6375 38.7001C75.2625 38.9077 74.9499 39.212 74.7323 39.5813C74.5147 39.9506 74.3999 40.3715 74.4 40.8001V45.6939C74.3994 45.9668 74.4453 46.2379 74.5359 46.4954C75.2893 48.6285 76.9897 49.952 78.6187 50.8548C80.2477 51.7576 81.9522 52.3806 83.4656 53.1048C84.979 53.8289 86.2619 54.6247 87.1593 55.6548C87.5488 56.1018 87.604 57.0089 87.8718 57.6001H53.7281C53.9959 57.0091 54.0512 56.1016 54.4406 55.6548C55.338 54.6252 56.6208 53.8287 58.1343 53.1048C59.6479 52.3809 61.352 51.758 62.9812 50.8548C64.6105 49.9516 66.311 48.6294 67.064 46.4954C67.1546 46.2379 67.2006 45.9668 67.2 45.6939V40.8001C67.1999 40.3697 67.0842 39.9473 66.8648 39.577C66.6454 39.2067 66.3305 38.9022 65.9531 38.6954C66.1844 38.8224 65.851 38.6207 65.5593 38.3345C65.2677 38.0483 64.9065 37.6408 64.5797 37.1907C63.926 36.2907 63.4828 35.2125 63.4828 34.5798C63.4825 34.0848 63.3292 33.602 63.0439 33.1976C62.7586 32.7931 62.3552 32.4867 61.889 32.3204C61.837 32.2338 61.6472 31.9375 61.5422 31.0314C61.5265 30.8924 61.5419 30.7877 61.5609 30.722C61.9144 30.4218 62.1733 30.0256 62.3064 29.5814C62.4395 29.1372 62.4411 28.6639 62.3109 28.2188C61.0298 23.8903 61.1688 20.3696 62.4984 18.1642C63.7118 16.1515 66.2973 14.8252 70.8937 14.5829ZM105.98 62.3626C105.543 62.3691 105.107 62.4094 104.672 62.4798C103.512 62.6675 102.371 63.0876 101.32 63.7501L74.6812 80.1657C74.0663 79.8295 73.3124 79.4582 72.3187 78.9798C71.1769 78.43 69.9829 77.869 69.3093 77.5642C65.6837 75.9246 54.1245 71.1535 45.3515 67.3032C41.5985 65.6562 37.5873 64.8145 33.5718 64.7767C29.5564 64.7388 25.5332 65.5062 21.75 67.0829L6.27653 73.5282C5.97875 73.6446 5.70723 73.8194 5.47791 74.0421C5.24858 74.2649 5.06608 74.5313 4.94111 74.8256C4.81614 75.1199 4.75123 75.4361 4.75018 75.7559C4.74914 76.0756 4.81198 76.3923 4.93501 76.6874C5.05805 76.9825 5.2388 77.25 5.46666 77.4743C5.69452 77.6986 5.9649 77.8751 6.26191 77.9935C6.55892 78.1118 6.87658 78.1696 7.19624 78.1635C7.51591 78.1574 7.83113 78.0875 8.12341 77.9579L23.5968 71.5126C29.9552 68.8627 37.1119 68.9317 43.4203 71.7001C52.2777 75.5874 64.0257 80.4428 67.3312 81.9376C67.9249 82.2063 69.1239 82.7701 70.2375 83.3064C71.3511 83.8426 72.5215 84.4358 72.6187 84.4923C73.6896 85.1151 74.4 86.2301 74.4 87.572C74.4 89.5899 72.8179 91.172 70.8 91.172C70.514 91.172 70.2426 91.14 69.9843 91.0782C69.9828 91.0782 69.9812 91.0782 69.9797 91.0782C69.9191 91.0638 68.0203 90.5305 65.7187 89.8548C63.4171 89.179 60.4885 88.3112 57.6093 87.4548C51.851 85.7421 46.289 84.0751 46.289 84.0751C45.6792 83.8923 45.0218 83.9593 44.4614 84.2613C43.901 84.5632 43.4835 85.0755 43.3008 85.6853C43.118 86.2951 43.185 86.9525 43.4869 87.5129C43.7889 88.0733 44.3011 88.4908 44.9109 88.6735C44.9109 88.6735 50.4812 90.3388 56.2453 92.0532C59.1273 92.9105 62.0569 93.7792 64.3687 94.4579C66.6783 95.136 68.1485 95.5762 68.8687 95.747C69.4936 95.8964 70.1404 95.972 70.8 95.972C75.4108 95.972 79.2 92.1828 79.2 87.572C79.2 86.1509 78.8288 84.8153 78.1968 83.6392L103.861 67.8235C103.869 67.8189 103.877 67.8142 103.884 67.8095C105.893 66.5428 108.478 67.1282 109.744 69.136C110.974 71.0855 110.46 73.5925 108.562 74.9017C108.532 74.9213 108.503 74.9416 108.473 74.9626L70.6172 103.645C68.0331 105.605 64.6465 106.132 61.589 105.047L33.6328 95.1376C27.1688 92.4697 19.7709 93.3681 14.1328 97.5048L5.77028 103.641C5.50588 103.823 5.28077 104.057 5.1083 104.328C4.93582 104.599 4.81949 104.901 4.76619 105.218C4.71289 105.535 4.7237 105.859 4.798 106.172C4.87229 106.484 5.00855 106.779 5.1987 107.037C5.38886 107.296 5.62903 107.514 5.905 107.679C6.18097 107.843 6.48712 107.95 6.80532 107.994C7.12351 108.038 7.44727 108.018 7.75742 107.934C8.06757 107.851 8.3578 107.706 8.61091 107.508L16.9734 101.377C21.2665 98.2269 26.8783 97.5453 31.8 99.5767C31.8371 99.5917 31.8746 99.6057 31.9125 99.6189L59.9859 109.57C64.5604 111.193 69.6516 110.402 73.5187 107.47L111.286 78.8532C114.999 76.2909 116.09 71.3973 114.131 67.4298C114.078 67.127 113.966 66.8374 113.803 66.5767C112.064 63.8182 109.039 62.317 105.98 62.3626Z" fill="currentColor"/>
</svg>
