<svg width="24" height="24" viewBox="0 0 24 24" xmlns="http://www.w3.org/2000/svg">
  <path
    d="M12 3.84C9.08876 3.84 6.71996 6.2088 6.71996 9.12C6.71996 11.3811 8.53482 13.7817 10.0068 15.36H6.52871C6.14999 15.36 5.79359 15.5615 5.59871 15.8859L3.94027 18.6506C3.81259 18.8637 3.80991 19.119 3.93183 19.335C4.05375 19.5505 4.2743 19.68 4.52246 19.68H19.4775C19.7256 19.68 19.9471 19.5505 20.069 19.335C20.1909 19.119 20.1883 18.8633 20.0606 18.6506L18.4021 15.8859C18.2068 15.5615 17.8509 15.36 17.4721 15.36H14.6896L14.1815 15.84H17.4721C17.6829 15.84 17.8812 15.952 17.9896 16.1334L19.649 18.8981C19.7028 18.9879 19.6682 19.0685 19.6509 19.0987C19.6341 19.129 19.5826 19.2 19.4775 19.2H4.52246C4.41734 19.2 4.36582 19.1295 4.34902 19.0987C4.33174 19.0685 4.29807 18.9884 4.35183 18.8981L6.01027 16.1334C6.11875 15.9525 6.31799 15.84 6.52871 15.84H10.4746C11.2009 16.5726 11.7795 17.0693 11.8471 17.1253C11.8918 17.1623 11.9457 17.1806 12 17.1806C12.0542 17.1806 12.1081 17.1623 12.1528 17.1253C12.3621 16.952 17.28 12.84 17.28 9.12C17.28 6.2088 14.9112 3.84 12 3.84ZM12 4.32C14.6467 4.32 16.8 6.47328 16.8 9.12C16.8 12.2616 12.8356 15.8941 12 16.6247C11.1643 15.8941 7.19996 12.2616 7.19996 9.12C7.19996 6.47328 9.35324 4.32 12 4.32ZM12 8.16C11.4696 8.16 11.04 8.5896 11.04 9.12C11.04 9.6504 11.4696 10.08 12 10.08C12.5304 10.08 12.96 9.6504 12.96 9.12C12.96 8.5896 12.5304 8.16 12 8.16Z"
    fill="currentColor"/>
</svg>
