<svg width="24" height="24" viewBox="0 0 24 24" xmlns="http://www.w3.org/2000/svg">
  <path
    d="M10.08 3.84C9.28462 3.84 8.63998 4.48464 8.63998 5.28H4.79999C4.00463 5.28 3.35999 5.92464 3.35999 6.72V17.28C3.35999 18.0754 4.00463 18.72 4.79999 18.72H19.2C19.9953 18.72 20.64 18.0754 20.64 17.28V6.72C20.64 5.92464 19.9953 5.28 19.2 5.28H15.36C15.36 4.48464 14.7153 3.84 13.92 3.84H10.08ZM10.08 4.32H13.92C14.4504 4.32 14.88 4.7496 14.88 5.28H9.11998C9.11998 4.7496 9.54958 4.32 10.08 4.32ZM4.79999 5.76H7.67998V18.24H4.79999C4.26959 18.24 3.83999 17.8104 3.83999 17.28V6.72C3.83999 6.1896 4.26959 5.76 4.79999 5.76ZM8.15998 5.76H15.84V18.24H8.15998V5.76ZM16.32 5.76H19.2C19.7304 5.76 20.16 6.1896 20.16 6.72V17.28C20.16 17.8104 19.7304 18.24 19.2 18.24H16.32V5.76Z"
    fill="currentColor"/>
</svg>
