<svg width="120" height="120" viewBox="0 0 120 120" fill="currentColor" xmlns="http://www.w3.org/2000/svg">
<path d="M0 21.6001V26.4001H14.4V88.8001H11.7563C10.6357 83.3411 5.77717 79.2001 0 79.2001V84.0001C4.00436 84.0001 7.2 87.1957 7.2 91.2001C7.2 95.2045 4.00436 98.4001 0 98.4001V103.2C5.77717 103.2 10.6357 99.0591 11.7563 93.6001H16.8C17.4365 93.6 18.0469 93.3472 18.497 92.8971C18.9471 92.447 19.1999 91.8366 19.2 91.2001V84.0001H24V91.2001C24.0001 91.8366 24.2529 92.447 24.703 92.8971C25.1531 93.3472 25.7635 93.6 26.4 93.6001H31.4344C31.8243 95.7041 32.7238 97.7278 34.2047 99.3938C36.2445 101.689 39.4 103.2 43.2 103.2C47 103.2 50.1555 101.689 52.1953 99.3938C53.6762 97.7278 54.5757 95.7041 54.9656 93.6001H84H89.0344C89.4243 95.7041 90.3238 97.7278 91.8047 99.3938C93.8445 101.689 97 103.2 100.8 103.2C104.6 103.2 107.755 101.689 109.795 99.3938C111.276 97.7278 112.176 95.7041 112.566 93.6001H115.2C117.823 93.6001 120 91.4234 120 88.8001V54.4032C120 52.8467 119.498 51.3284 118.561 50.0813L106.556 34.0782C105.198 32.2672 103.059 31.2001 100.795 31.2001H86.4V24.0001C86.3999 23.3636 86.1471 22.7532 85.697 22.3031C85.2469 21.853 84.6365 21.6002 84 21.6001H26.4C25.7635 21.6002 25.1531 21.853 24.703 22.3031C24.2529 22.7532 24.0001 23.3636 24 24.0001V79.2001H19.2V24.0001C19.1999 23.3636 18.9471 22.7532 18.497 22.3031C18.0469 21.853 17.4365 21.6002 16.8 21.6001H0ZM28.8 26.4001H81.6V33.197C81.5572 33.4562 81.5572 33.7206 81.6 33.9798V88.8001H54.9656C54.5757 86.6961 53.6762 84.6723 52.1953 83.0063C50.1555 80.7115 47 79.2001 43.2 79.2001C39.4 79.2001 36.2445 80.7115 34.2047 83.0063C32.7238 84.6723 31.8243 86.6961 31.4344 88.8001H28.8V26.4001ZM86.4 36.0001H100.795C101.556 36.0001 102.261 36.3528 102.717 36.961L105.595 40.8001H100.8C96.8521 40.8001 93.6 44.0522 93.6 48.0001V55.2001C93.6 59.148 96.8521 62.4001 100.8 62.4001H115.2V88.8001H112.566C112.176 86.6961 111.276 84.6723 109.795 83.0063C107.755 80.7115 104.6 79.2001 100.8 79.2001C97 79.2001 93.8445 80.7115 91.8047 83.0063C90.3238 84.6723 89.4243 86.6961 89.0344 88.8001H86.4V36.0001ZM100.8 45.6001H109.2L114.722 52.9642C115.033 53.3779 115.2 53.8813 115.2 54.4032V57.6001H100.8C99.4439 57.6001 98.4 56.5562 98.4 55.2001V48.0001C98.4 46.644 99.4439 45.6001 100.8 45.6001ZM43.2 84.0001C45.8 84.0001 47.4445 84.8887 48.6047 86.1938C49.7648 87.499 50.4 89.3334 50.4 91.2001C50.4 93.0668 49.7648 94.9012 48.6047 96.2063C47.4445 97.5115 45.8 98.4001 43.2 98.4001C40.6 98.4001 38.9555 97.5115 37.7953 96.2063C36.6352 94.9012 36 93.0668 36 91.2001C36 89.3334 36.6352 87.499 37.7953 86.1938C38.9555 84.8887 40.6 84.0001 43.2 84.0001ZM100.8 84.0001C103.4 84.0001 105.045 84.8887 106.205 86.1938C107.316 87.4439 107.93 89.1813 107.981 90.9657C107.965 91.1247 107.965 91.2849 107.981 91.4438C107.928 93.225 107.314 94.9585 106.205 96.2063C105.045 97.5115 103.4 98.4001 100.8 98.4001C98.2 98.4001 96.5555 97.5115 95.3953 96.2063C94.2352 94.9012 93.6 93.0668 93.6 91.2001C93.6 89.3334 94.2352 87.499 95.3953 86.1938C96.5555 84.8887 98.2 84.0001 100.8 84.0001Z" fill="currentColor"/>
</svg>
