<svg width="120" height="120" viewBox="0 0 120 120" fill="currentColor" xmlns="http://www.w3.org/2000/svg">
<path d="M57.9375 4.80005C55.1813 4.80005 53.1469 7.07817 52.9406 9.77817C47.3063 10.4907 42.975 13.5844 40.3031 17.5875C37.4906 21.8157 36.3188 26.7844 36.15 31.2094C35.7656 31.3219 35.475 31.3594 34.8094 31.7344C33.8156 32.2969 32.7656 33.3844 32.1375 34.875C31.5094 36.3657 31.2 38.2407 31.2 40.8V42.675L33.0188 43.125C33.0188 43.125 34.6688 43.4625 37.0219 43.8657C37.1719 44.5032 37.3313 45.075 37.5 45.5907C37.6688 46.1157 37.8563 46.7625 38.0344 47.325C37.7156 47.6344 37.4531 47.7094 37.1438 48.1594C36.3281 49.3407 35.7375 51.0844 35.9719 53.0907C36.5438 57.8344 38.6813 60.1688 41.0531 61.3125C41.4188 63.75 42.0188 66.2719 42.9 68.4188C43.3969 69.6563 43.95 70.7625 44.55 71.7094C44.8219 72.1407 45.2813 72.4219 45.6 72.7969C45.5906 74.6532 45.5813 76.8844 45.5719 78.9657H45.3656C44.9344 78.9563 44.5125 79.0688 44.1375 79.2844C44.1375 79.2844 40.125 81.8625 36.7781 86.55C21.9 89.9532 12 101.878 12 112.8C12 114.122 13.0781 115.2 14.4 115.2H54.3844C54.7781 115.303 55.2 115.303 55.5844 115.2H64.4156C64.8094 115.303 65.2219 115.303 65.6156 115.2H105.6C106.922 115.2 108 114.122 108 112.8C108 99.6469 96.15 89.0344 83.025 86.7657C82.4063 85.9219 79.8094 82.5657 76.1531 79.9313C75.7031 79.4438 75.075 79.1719 74.4094 79.1625C74.4188 76.9969 74.4094 74.7375 74.4094 72.7875C74.7188 72.4219 75.1875 72.1407 75.4594 71.7094C76.0594 70.7532 76.6031 69.6469 77.1 68.4094C77.9625 66.2625 78.5625 63.75 78.9281 61.3125C81.2906 60.1688 83.4281 57.8344 84 53.0907C84.2344 51.1032 83.6625 49.3594 82.8656 48.1782C82.5656 47.7375 82.3031 47.6625 81.9844 47.3532C82.4063 46.3969 82.9031 45.525 83.3156 43.8094C85.4719 43.4344 86.9906 43.125 86.9906 43.125L88.8 42.675V40.8C88.8 38.2219 88.4906 36.3375 87.8625 34.8375C87.2344 33.3375 86.175 32.2594 85.1719 31.6969C84.5156 31.3313 84.2344 31.2938 83.85 31.1907C83.6719 26.7563 82.4813 21.7969 79.6594 17.5875C76.9781 13.5844 72.6563 10.5 67.0594 9.78755C66.8625 7.07817 64.8188 4.80005 62.0625 4.80005H57.9375ZM57.9375 9.60005H62.0625C62.1 9.60005 62.4 9.7688 62.4 10.1438V11.4844C62.3531 11.7469 62.3531 12.0094 62.4 12.2625V26.4C62.3906 27.2625 62.8406 28.0688 63.5906 28.5094C64.3406 28.9407 65.2594 28.9407 66.0094 28.5094C66.7594 28.0688 67.2094 27.2625 67.2 26.4V14.8969C70.875 15.5907 73.7344 17.3719 75.675 20.2594C78.0563 23.8032 79.2 28.5282 79.2 32.2875C79.2 33 79.5094 33.9375 80.0625 34.5282C80.6156 35.1188 81.1781 35.325 81.5625 35.4563C82.3125 35.7188 82.6313 35.775 82.8281 35.8875C83.025 35.9907 83.1656 36.0469 83.4375 36.6938C83.5781 37.0313 83.625 38.1188 83.7375 38.8407C83.175 38.9532 82.2938 39.1407 81.1688 39.3282C80.9906 39.3375 80.8219 39.3657 80.6531 39.4125C76.875 40.0219 70.2656 40.8 60.0094 40.8C50.0531 40.8 43.5938 40.0688 39.75 39.4594C39.5438 39.4032 39.3281 39.375 39.1125 39.375C37.8281 39.1594 36.8813 38.9719 36.2719 38.8407C36.375 38.1282 36.4219 37.0688 36.5625 36.7313C36.8344 36.0844 36.9844 36.0282 37.1906 35.9157C37.3875 35.7938 37.7156 35.7282 38.475 35.4563C38.85 35.3157 39.4031 35.1 39.9469 34.5188C40.5 33.9375 40.8 33 40.8 32.2875C40.8 28.5282 41.925 23.8032 44.2875 20.25C46.2188 17.3625 49.0875 15.5813 52.8 14.8875V26.4C52.7906 27.2625 53.2406 28.0688 53.9906 28.5094C54.7406 28.9407 55.6594 28.9407 56.4094 28.5094C57.1594 28.0688 57.6094 27.2625 57.6 26.4V12.2907C57.6469 12.0282 57.6469 11.7657 57.6 11.5032V10.1438C57.6 9.7688 57.9094 9.60005 57.9375 9.60005ZM78.075 44.5782C77.7375 45.375 77.3719 46.0594 76.9781 47.2407L76.3781 49.0594L78.0094 50.0532C78.2344 50.1938 78.6281 50.4938 78.8906 50.8688C79.1438 51.2438 79.3406 51.6563 79.2375 52.5094C78.6844 57.0657 76.2094 57.6469 76.6125 57.6094L74.6344 57.7688L74.4281 59.7375C74.1938 61.9219 73.4813 64.5469 72.6469 66.6094C72.2344 67.65 71.775 68.5407 71.4 69.15C71.0156 69.7688 70.575 70.05 70.9031 69.8719L69.6094 70.5469V72C69.6094 74.6719 69.6094 77.9438 69.6094 81.1219C69.5719 81.3188 69.5625 81.5157 69.5719 81.7125C69.5438 82.1438 69.3563 82.5657 68.775 83.1375C68.1469 83.7657 67.125 84.4125 66.0469 84.9282C64.05 85.875 62.1469 86.3344 61.8469 86.4H58.1531C57.8531 86.3344 55.95 85.875 53.9531 84.9282C52.875 84.4125 51.8531 83.7657 51.225 83.1375C50.5969 82.5188 50.4 82.0782 50.4 81.6C50.4 81.4594 50.3906 81.3282 50.3625 81.1875C50.3813 77.9532 50.4 74.7 50.4 72V70.5469L49.1156 69.8719C49.4344 70.0407 48.9938 69.7594 48.6 69.15C48.2156 68.5407 47.7563 67.6407 47.3344 66.6C46.5 64.5375 45.7781 61.9219 45.5438 59.7469L45.3375 57.7688L43.35 57.6094C43.7625 57.6469 41.2875 57.0657 40.7438 52.5094C40.6406 51.6657 40.8281 51.2625 41.1 50.8875C41.3625 50.5032 41.7656 50.1938 42.0094 50.0532L43.5281 49.125L43.0875 47.4C42.75 46.0969 42.4594 45.3282 42.2156 44.6157C46.7063 45.1313 52.65 45.6 60.0094 45.6C67.5281 45.6 73.5656 45.1125 78.075 44.5782ZM43.8 85.5844C44.0625 86.7 44.3719 87.8719 44.7469 89.25C45.6469 92.4657 46.8281 96.225 48 99.8344C49.4531 104.278 50.6813 107.831 51.5719 110.4H44.3531L37.0594 101.288L41.7094 97.95C42.525 97.3688 42.9 96.3469 42.6375 95.3813L40.9031 88.875C41.9344 87.4594 42.9281 86.3719 43.8 85.5844ZM76.0125 86.2969C77.4844 87.7313 78.375 88.7344 78.9469 89.4094L77.3625 95.3813C77.1 96.3469 77.475 97.3688 78.2906 97.95L82.9406 101.288L75.6469 110.4H68.4281C69.3188 107.831 70.5469 104.278 72 99.8344C73.1719 96.225 74.3531 92.4657 75.2531 89.25C75.5531 88.1344 75.7781 87.2344 76.0125 86.2969ZM49.3219 87.7782C50.1656 88.3594 51.0375 88.8563 51.8906 89.2594C53.1938 89.8782 54.4594 90.3188 55.4531 90.6282L57.6 96L54.9281 105.356C54.1781 103.191 53.4188 100.978 52.5656 98.3438C51.3938 94.7813 50.2313 91.0594 49.3781 87.9657C49.35 87.8907 49.35 87.8438 49.3219 87.7782ZM70.6781 87.7782C70.65 87.8438 70.65 87.8907 70.6219 87.9657C69.7688 91.0594 68.6063 94.7813 67.4344 98.3438C66.5813 100.978 65.8219 103.191 65.0719 105.356L62.4 96L64.5469 90.6282C65.5406 90.3188 66.8063 89.8782 68.1094 89.2594C68.9625 88.8563 69.8344 88.3594 70.6781 87.7782ZM36.6094 91.3969L37.575 95.0157L32.2031 98.85C31.6688 99.225 31.3125 99.8157 31.2188 100.472C31.1344 101.119 31.3125 101.784 31.725 102.3L38.2031 110.4H17.3719C18.6938 103.106 25.6594 94.4063 36.6094 91.3969ZM83.3531 91.5469C92.9719 93.7032 101.241 101.559 102.628 110.4H81.7969L88.275 102.3C88.6875 101.784 88.8656 101.119 88.7812 100.472C88.6875 99.8157 88.3313 99.225 87.7969 98.85L82.425 95.0157L83.3531 91.5469Z" fill="currentColor"/>
</svg>
